<svg width="400" height="320" viewBox="0 0 400 320" xmlns="http://www.w3.org/2000/svg">
  <!-- Background -->
  <rect width="400" height="320" fill="#f9fafb" rx="8"/>
  
  <!-- Title -->
  <text x="20" y="25" font-family="Arial, sans-serif" font-size="14" font-weight="bold" fill="#374151">
    Topic Mastery
  </text>

  <!-- Array -->
  <text x="20" y="66" font-family="Arial, sans-serif" font-size="11" fill="#6b7280">
    Array
  </text>
  <rect x="120" y="50" width="250" height="25" fill="#e5e7eb" rx="4"/>
  <rect x="120" y="50" width="10.625" height="25" fill="#94a3b8" rx="4"/>
  <text x="130" y="66" font-family="Arial, sans-serif" font-size="10" fill="white" font-weight="bold">
    17/400 (4.2%)
  </text>

  <!-- String -->
  <text x="20" y="101" font-family="Arial, sans-serif" font-size="11" fill="#6b7280">
    String
  </text>
  <rect x="120" y="85" width="250" height="25" fill="#e5e7eb" rx="4"/>
  <rect x="120" y="85" width="10.0" height="25" fill="#94a3b8" rx="4"/>
  <text x="130" y="101" font-family="Arial, sans-serif" font-size="10" fill="white" font-weight="bold">
    10/250 (4.0%)
  </text>

  <!-- Two Pointers -->
  <text x="20" y="136" font-family="Arial, sans-serif" font-size="11" fill="#6b7280">
    Two Pointers
  </text>
  <rect x="120" y="120" width="250" height="25" fill="#e5e7eb" rx="4"/>
  <rect x="120" y="120" width="21.875" height="25" fill="#94a3b8" rx="4"/>
  <text x="130" y="136" font-family="Arial, sans-serif" font-size="10" fill="white" font-weight="bold">
    7/80 (8.8%)
  </text>

  <!-- Hash Table -->
  <text x="20" y="171" font-family="Arial, sans-serif" font-size="11" fill="#6b7280">
    Hash Table
  </text>
  <rect x="120" y="155" width="250" height="25" fill="#e5e7eb" rx="4"/>
  <rect x="120" y="155" width="5.0" height="25" fill="#94a3b8" rx="4"/>
  <text x="130" y="171" font-family="Arial, sans-serif" font-size="10" fill="white" font-weight="bold">
    4/200 (2.0%)
  </text>

  <!-- Sliding Window -->
  <text x="20" y="206" font-family="Arial, sans-serif" font-size="11" fill="#6b7280">
    Sliding Window
  </text>
  <rect x="120" y="190" width="250" height="25" fill="#e5e7eb" rx="4"/>
  <rect x="120" y="190" width="16.666666666666668" height="25" fill="#94a3b8" rx="4"/>
  <text x="130" y="206" font-family="Arial, sans-serif" font-size="10" fill="white" font-weight="bold">
    4/60 (6.7%)
  </text>

  <!-- Binary Search -->
  <text x="20" y="241" font-family="Arial, sans-serif" font-size="11" fill="#6b7280">
    Binary Search
  </text>
  <rect x="120" y="225" width="250" height="25" fill="#e5e7eb" rx="4"/>
  <rect x="120" y="225" width="5.555555555555555" height="25" fill="#94a3b8" rx="4"/>
  <text x="130" y="241" font-family="Arial, sans-serif" font-size="10" fill="white" font-weight="bold">
    2/90 (2.2%)
  </text>

  <!-- Stack -->
  <text x="20" y="276" font-family="Arial, sans-serif" font-size="11" fill="#6b7280">
    Stack
  </text>
  <rect x="120" y="260" width="250" height="25" fill="#e5e7eb" rx="4"/>
  <rect x="120" y="260" width="5.0" height="25" fill="#94a3b8" rx="4"/>
  <text x="130" y="276" font-family="Arial, sans-serif" font-size="10" fill="white" font-weight="bold">
    2/100 (2.0%)
  </text>

  <!-- Dynamic Programming -->
  <text x="20" y="311" font-family="Arial, sans-serif" font-size="11" fill="#6b7280">
    Dynamic Programming
  </text>
  <rect x="120" y="295" width="250" height="25" fill="#e5e7eb" rx="4"/>
  <rect x="120" y="295" width="0.8333333333333335" height="25" fill="#94a3b8" rx="4"/>
  <text x="130" y="311" font-family="Arial, sans-serif" font-size="10" fill="white" font-weight="bold">
    1/300 (0.3%)
  </text>
</svg>