<svg width="776" height="151" viewBox="0 0 776 151" xmlns="http://www.w3.org/2000/svg">
  <style>
    .bg-panel { fill: #f9fafb; }
    .text-primary { fill: #374151; }
    .text-secondary { fill: #6b7280; }
    .activity-0 { fill: #ebedf0; }
    .activity-1 { fill: #c6e48b; }
    .activity-2 { fill: #7bc96f; }
    .activity-3 { fill: #239a3b; }
    .activity-4 { fill: #196127; }

    @media (prefers-color-scheme: dark) {
      .bg-panel { fill: #1f2937; }
      .text-primary { fill: #f9fafb; }
      .text-secondary { fill: #9ca3af; }
      .activity-0 { fill: #374151; }
      .activity-1 { fill: #365314; }
      .activity-2 { fill: #4d7c0f; }
      .activity-3 { fill: #65a30d; }
      .activity-4 { fill: #84cc16; }
    }
  </style>
  <!-- Background -->
  <rect width="776" height="151" class="bg-panel" rx="8"/>

  <!-- Title -->
  <text x="20" y="25" font-family="Arial, sans-serif" font-size="14" font-weight="bold" class="text-primary">
    Git Activity (Last 52 Weeks)
  </text>

  <!-- Day labels -->
  <text x="15" y="55" font-family="Arial, sans-serif" font-size="9" class="text-secondary">M</text>
  <text x="15" y="81" font-family="Arial, sans-serif" font-size="9" class="text-secondary">W</text>
  <text x="15" y="107" font-family="Arial, sans-serif" font-size="9" class="text-secondary">F</text>
  <rect x="30" y="40" width="11" height="11" class="activity-0" rx="2"/>
  <rect x="30" y="53" width="11" height="11" class="activity-0" rx="2"/>
  <rect x="30" y="66" width="11" height="11" class="activity-0" rx="2"/>
  <rect x="30" y="79" width="11" height="11" class="activity-0" rx="2"/>
  <rect x="30" y="92" width="11" height="11" class="activity-0" rx="2"/>
  <rect x="30" y="105" width="11" height="11" class="activity-0" rx="2"/>
  <rect x="30" y="118" width="11" height="11" class="activity-0" rx="2"/>
  <rect x="43" y="40" width="11" height="11" class="activity-0" rx="2"/>
  <rect x="43" y="53" width="11" height="11" class="activity-0" rx="2"/>
  <rect x="43" y="66" width="11" height="11" class="activity-0" rx="2"/>
  <rect x="43" y="79" width="11" height="11" class="activity-0" rx="2"/>
  <rect x="43" y="92" width="11" height="11" class="activity-0" rx="2"/>
  <rect x="43" y="105" width="11" height="11" class="activity-0" rx="2"/>
  <rect x="43" y="118" width="11" height="11" class="activity-0" rx="2"/>
  <rect x="56" y="40" width="11" height="11" class="activity-0" rx="2"/>
  <rect x="56" y="53" width="11" height="11" class="activity-0" rx="2"/>
  <rect x="56" y="66" width="11" height="11" class="activity-0" rx="2"/>
  <rect x="56" y="79" width="11" height="11" class="activity-0" rx="2"/>
  <rect x="56" y="92" width="11" height="11" class="activity-0" rx="2"/>
  <rect x="56" y="105" width="11" height="11" class="activity-0" rx="2"/>
  <rect x="56" y="118" width="11" height="11" class="activity-0" rx="2"/>
  <rect x="69" y="40" width="11" height="11" class="activity-0" rx="2"/>
  <rect x="69" y="53" width="11" height="11" class="activity-0" rx="2"/>
  <rect x="69" y="66" width="11" height="11" class="activity-0" rx="2"/>
  <rect x="69" y="79" width="11" height="11" class="activity-0" rx="2"/>
  <rect x="69" y="92" width="11" height="11" class="activity-0" rx="2"/>
  <rect x="69" y="105" width="11" height="11" class="activity-0" rx="2"/>
  <rect x="69" y="118" width="11" height="11" class="activity-0" rx="2"/>
  <rect x="82" y="40" width="11" height="11" class="activity-0" rx="2"/>
  <rect x="82" y="53" width="11" height="11" class="activity-0" rx="2"/>
  <rect x="82" y="66" width="11" height="11" class="activity-0" rx="2"/>
  <rect x="82" y="79" width="11" height="11" class="activity-0" rx="2"/>
  <rect x="82" y="92" width="11" height="11" class="activity-0" rx="2"/>
  <rect x="82" y="105" width="11" height="11" class="activity-0" rx="2"/>
  <rect x="82" y="118" width="11" height="11" class="activity-0" rx="2"/>
  <rect x="95" y="40" width="11" height="11" class="activity-0" rx="2"/>
  <rect x="95" y="53" width="11" height="11" class="activity-0" rx="2"/>
  <rect x="95" y="66" width="11" height="11" class="activity-0" rx="2"/>
  <rect x="95" y="79" width="11" height="11" class="activity-0" rx="2"/>
  <rect x="95" y="92" width="11" height="11" class="activity-0" rx="2"/>
  <rect x="95" y="105" width="11" height="11" class="activity-0" rx="2"/>
  <rect x="95" y="118" width="11" height="11" class="activity-0" rx="2"/>
  <rect x="108" y="40" width="11" height="11" class="activity-0" rx="2"/>
  <rect x="108" y="53" width="11" height="11" class="activity-0" rx="2"/>
  <rect x="108" y="66" width="11" height="11" class="activity-0" rx="2"/>
  <rect x="108" y="79" width="11" height="11" class="activity-0" rx="2"/>
  <rect x="108" y="92" width="11" height="11" class="activity-0" rx="2"/>
  <rect x="108" y="105" width="11" height="11" class="activity-0" rx="2"/>
  <rect x="108" y="118" width="11" height="11" class="activity-0" rx="2"/>
  <rect x="121" y="40" width="11" height="11" class="activity-0" rx="2"/>
  <rect x="121" y="53" width="11" height="11" class="activity-0" rx="2"/>
  <rect x="121" y="66" width="11" height="11" class="activity-0" rx="2"/>
  <rect x="121" y="79" width="11" height="11" class="activity-0" rx="2"/>
  <rect x="121" y="92" width="11" height="11" class="activity-0" rx="2"/>
  <rect x="121" y="105" width="11" height="11" class="activity-0" rx="2"/>
  <rect x="121" y="118" width="11" height="11" class="activity-0" rx="2"/>
  <rect x="134" y="40" width="11" height="11" class="activity-0" rx="2"/>
  <rect x="134" y="53" width="11" height="11" class="activity-0" rx="2"/>
  <rect x="134" y="66" width="11" height="11" class="activity-0" rx="2"/>
  <rect x="134" y="79" width="11" height="11" class="activity-0" rx="2"/>
  <rect x="134" y="92" width="11" height="11" class="activity-0" rx="2"/>
  <rect x="134" y="105" width="11" height="11" class="activity-0" rx="2"/>
  <rect x="134" y="118" width="11" height="11" class="activity-0" rx="2"/>
  <rect x="147" y="40" width="11" height="11" class="activity-0" rx="2"/>
  <rect x="147" y="53" width="11" height="11" class="activity-0" rx="2"/>
  <rect x="147" y="66" width="11" height="11" class="activity-0" rx="2"/>
  <rect x="147" y="79" width="11" height="11" class="activity-0" rx="2"/>
  <rect x="147" y="92" width="11" height="11" class="activity-0" rx="2"/>
  <rect x="147" y="105" width="11" height="11" class="activity-0" rx="2"/>
  <rect x="147" y="118" width="11" height="11" class="activity-0" rx="2"/>
  <rect x="160" y="40" width="11" height="11" class="activity-0" rx="2"/>
  <rect x="160" y="53" width="11" height="11" class="activity-0" rx="2"/>
  <rect x="160" y="66" width="11" height="11" class="activity-0" rx="2"/>
  <rect x="160" y="79" width="11" height="11" class="activity-0" rx="2"/>
  <rect x="160" y="92" width="11" height="11" class="activity-0" rx="2"/>
  <rect x="160" y="105" width="11" height="11" class="activity-0" rx="2"/>
  <rect x="160" y="118" width="11" height="11" class="activity-0" rx="2"/>
  <rect x="173" y="40" width="11" height="11" class="activity-0" rx="2"/>
  <rect x="173" y="53" width="11" height="11" class="activity-0" rx="2"/>
  <rect x="173" y="66" width="11" height="11" class="activity-0" rx="2"/>
  <rect x="173" y="79" width="11" height="11" class="activity-0" rx="2"/>
  <rect x="173" y="92" width="11" height="11" class="activity-0" rx="2"/>
  <rect x="173" y="105" width="11" height="11" class="activity-0" rx="2"/>
  <rect x="173" y="118" width="11" height="11" class="activity-0" rx="2"/>
  <rect x="186" y="40" width="11" height="11" class="activity-0" rx="2"/>
  <rect x="186" y="53" width="11" height="11" class="activity-0" rx="2"/>
  <rect x="186" y="66" width="11" height="11" class="activity-0" rx="2"/>
  <rect x="186" y="79" width="11" height="11" class="activity-0" rx="2"/>
  <rect x="186" y="92" width="11" height="11" class="activity-0" rx="2"/>
  <rect x="186" y="105" width="11" height="11" class="activity-0" rx="2"/>
  <rect x="186" y="118" width="11" height="11" class="activity-0" rx="2"/>
  <rect x="199" y="40" width="11" height="11" class="activity-0" rx="2"/>
  <rect x="199" y="53" width="11" height="11" class="activity-0" rx="2"/>
  <rect x="199" y="66" width="11" height="11" class="activity-0" rx="2"/>
  <rect x="199" y="79" width="11" height="11" class="activity-0" rx="2"/>
  <rect x="199" y="92" width="11" height="11" class="activity-0" rx="2"/>
  <rect x="199" y="105" width="11" height="11" class="activity-0" rx="2"/>
  <rect x="199" y="118" width="11" height="11" class="activity-0" rx="2"/>
  <rect x="212" y="40" width="11" height="11" class="activity-0" rx="2"/>
  <rect x="212" y="53" width="11" height="11" class="activity-0" rx="2"/>
  <rect x="212" y="66" width="11" height="11" class="activity-0" rx="2"/>
  <rect x="212" y="79" width="11" height="11" class="activity-0" rx="2"/>
  <rect x="212" y="92" width="11" height="11" class="activity-0" rx="2"/>
  <rect x="212" y="105" width="11" height="11" class="activity-0" rx="2"/>
  <rect x="212" y="118" width="11" height="11" class="activity-0" rx="2"/>
  <rect x="225" y="40" width="11" height="11" class="activity-0" rx="2"/>
  <rect x="225" y="53" width="11" height="11" class="activity-0" rx="2"/>
  <rect x="225" y="66" width="11" height="11" class="activity-0" rx="2"/>
  <rect x="225" y="79" width="11" height="11" class="activity-0" rx="2"/>
  <rect x="225" y="92" width="11" height="11" class="activity-0" rx="2"/>
  <rect x="225" y="105" width="11" height="11" class="activity-0" rx="2"/>
  <rect x="225" y="118" width="11" height="11" class="activity-0" rx="2"/>
  <rect x="238" y="40" width="11" height="11" class="activity-0" rx="2"/>
  <rect x="238" y="53" width="11" height="11" class="activity-0" rx="2"/>
  <rect x="238" y="66" width="11" height="11" class="activity-0" rx="2"/>
  <rect x="238" y="79" width="11" height="11" class="activity-0" rx="2"/>
  <rect x="238" y="92" width="11" height="11" class="activity-0" rx="2"/>
  <rect x="238" y="105" width="11" height="11" class="activity-0" rx="2"/>
  <rect x="238" y="118" width="11" height="11" class="activity-0" rx="2"/>
  <rect x="251" y="40" width="11" height="11" class="activity-0" rx="2"/>
  <rect x="251" y="53" width="11" height="11" class="activity-0" rx="2"/>
  <rect x="251" y="66" width="11" height="11" class="activity-0" rx="2"/>
  <rect x="251" y="79" width="11" height="11" class="activity-0" rx="2"/>
  <rect x="251" y="92" width="11" height="11" class="activity-0" rx="2"/>
  <rect x="251" y="105" width="11" height="11" class="activity-0" rx="2"/>
  <rect x="251" y="118" width="11" height="11" class="activity-0" rx="2"/>
  <rect x="264" y="40" width="11" height="11" class="activity-0" rx="2"/>
  <rect x="264" y="53" width="11" height="11" class="activity-0" rx="2"/>
  <rect x="264" y="66" width="11" height="11" class="activity-0" rx="2"/>
  <rect x="264" y="79" width="11" height="11" class="activity-0" rx="2"/>
  <rect x="264" y="92" width="11" height="11" class="activity-0" rx="2"/>
  <rect x="264" y="105" width="11" height="11" class="activity-0" rx="2"/>
  <rect x="264" y="118" width="11" height="11" class="activity-0" rx="2"/>
  <rect x="277" y="40" width="11" height="11" class="activity-0" rx="2"/>
  <rect x="277" y="53" width="11" height="11" class="activity-0" rx="2"/>
  <rect x="277" y="66" width="11" height="11" class="activity-0" rx="2"/>
  <rect x="277" y="79" width="11" height="11" class="activity-0" rx="2"/>
  <rect x="277" y="92" width="11" height="11" class="activity-0" rx="2"/>
  <rect x="277" y="105" width="11" height="11" class="activity-0" rx="2"/>
  <rect x="277" y="118" width="11" height="11" class="activity-0" rx="2"/>
  <rect x="290" y="40" width="11" height="11" class="activity-0" rx="2"/>
  <rect x="290" y="53" width="11" height="11" class="activity-0" rx="2"/>
  <rect x="290" y="66" width="11" height="11" class="activity-0" rx="2"/>
  <rect x="290" y="79" width="11" height="11" class="activity-0" rx="2"/>
  <rect x="290" y="92" width="11" height="11" class="activity-0" rx="2"/>
  <rect x="290" y="105" width="11" height="11" class="activity-0" rx="2"/>
  <rect x="290" y="118" width="11" height="11" class="activity-0" rx="2"/>
  <rect x="303" y="40" width="11" height="11" class="activity-0" rx="2"/>
  <rect x="303" y="53" width="11" height="11" class="activity-0" rx="2"/>
  <rect x="303" y="66" width="11" height="11" class="activity-0" rx="2"/>
  <rect x="303" y="79" width="11" height="11" class="activity-0" rx="2"/>
  <rect x="303" y="92" width="11" height="11" class="activity-0" rx="2"/>
  <rect x="303" y="105" width="11" height="11" class="activity-0" rx="2"/>
  <rect x="303" y="118" width="11" height="11" class="activity-0" rx="2"/>
  <rect x="316" y="40" width="11" height="11" class="activity-0" rx="2"/>
  <rect x="316" y="53" width="11" height="11" class="activity-0" rx="2"/>
  <rect x="316" y="66" width="11" height="11" class="activity-0" rx="2"/>
  <rect x="316" y="79" width="11" height="11" class="activity-0" rx="2"/>
  <rect x="316" y="92" width="11" height="11" class="activity-0" rx="2"/>
  <rect x="316" y="105" width="11" height="11" class="activity-0" rx="2"/>
  <rect x="316" y="118" width="11" height="11" class="activity-0" rx="2"/>
  <rect x="329" y="40" width="11" height="11" class="activity-0" rx="2"/>
  <rect x="329" y="53" width="11" height="11" class="activity-0" rx="2"/>
  <rect x="329" y="66" width="11" height="11" class="activity-0" rx="2"/>
  <rect x="329" y="79" width="11" height="11" class="activity-0" rx="2"/>
  <rect x="329" y="92" width="11" height="11" class="activity-0" rx="2"/>
  <rect x="329" y="105" width="11" height="11" class="activity-0" rx="2"/>
  <rect x="329" y="118" width="11" height="11" class="activity-0" rx="2"/>
  <rect x="342" y="40" width="11" height="11" class="activity-0" rx="2"/>
  <rect x="342" y="53" width="11" height="11" class="activity-0" rx="2"/>
  <rect x="342" y="66" width="11" height="11" class="activity-0" rx="2"/>
  <rect x="342" y="79" width="11" height="11" class="activity-0" rx="2"/>
  <rect x="342" y="92" width="11" height="11" class="activity-0" rx="2"/>
  <rect x="342" y="105" width="11" height="11" class="activity-0" rx="2"/>
  <rect x="342" y="118" width="11" height="11" class="activity-0" rx="2"/>
  <rect x="355" y="40" width="11" height="11" class="activity-0" rx="2"/>
  <rect x="355" y="53" width="11" height="11" class="activity-0" rx="2"/>
  <rect x="355" y="66" width="11" height="11" class="activity-0" rx="2"/>
  <rect x="355" y="79" width="11" height="11" class="activity-0" rx="2"/>
  <rect x="355" y="92" width="11" height="11" class="activity-0" rx="2"/>
  <rect x="355" y="105" width="11" height="11" class="activity-0" rx="2"/>
  <rect x="355" y="118" width="11" height="11" class="activity-0" rx="2"/>
  <rect x="368" y="40" width="11" height="11" class="activity-0" rx="2"/>
  <rect x="368" y="53" width="11" height="11" class="activity-0" rx="2"/>
  <rect x="368" y="66" width="11" height="11" class="activity-0" rx="2"/>
  <rect x="368" y="79" width="11" height="11" class="activity-0" rx="2"/>
  <rect x="368" y="92" width="11" height="11" class="activity-0" rx="2"/>
  <rect x="368" y="105" width="11" height="11" class="activity-0" rx="2"/>
  <rect x="368" y="118" width="11" height="11" class="activity-0" rx="2"/>
  <rect x="381" y="40" width="11" height="11" class="activity-0" rx="2"/>
  <rect x="381" y="53" width="11" height="11" class="activity-0" rx="2"/>
  <rect x="381" y="66" width="11" height="11" class="activity-0" rx="2"/>
  <rect x="381" y="79" width="11" height="11" class="activity-0" rx="2"/>
  <rect x="381" y="92" width="11" height="11" class="activity-0" rx="2"/>
  <rect x="381" y="105" width="11" height="11" class="activity-0" rx="2"/>
  <rect x="381" y="118" width="11" height="11" class="activity-0" rx="2"/>
  <rect x="394" y="40" width="11" height="11" class="activity-0" rx="2"/>
  <rect x="394" y="53" width="11" height="11" class="activity-0" rx="2"/>
  <rect x="394" y="66" width="11" height="11" class="activity-0" rx="2"/>
  <rect x="394" y="79" width="11" height="11" class="activity-0" rx="2"/>
  <rect x="394" y="92" width="11" height="11" class="activity-0" rx="2"/>
  <rect x="394" y="105" width="11" height="11" class="activity-0" rx="2"/>
  <rect x="394" y="118" width="11" height="11" class="activity-0" rx="2"/>
  <rect x="407" y="40" width="11" height="11" class="activity-0" rx="2"/>
  <rect x="407" y="53" width="11" height="11" class="activity-0" rx="2"/>
  <rect x="407" y="66" width="11" height="11" class="activity-0" rx="2"/>
  <rect x="407" y="79" width="11" height="11" class="activity-0" rx="2"/>
  <rect x="407" y="92" width="11" height="11" class="activity-0" rx="2"/>
  <rect x="407" y="105" width="11" height="11" class="activity-0" rx="2"/>
  <rect x="407" y="118" width="11" height="11" class="activity-0" rx="2"/>
  <rect x="420" y="40" width="11" height="11" class="activity-0" rx="2"/>
  <rect x="420" y="53" width="11" height="11" class="activity-0" rx="2"/>
  <rect x="420" y="66" width="11" height="11" class="activity-0" rx="2"/>
  <rect x="420" y="79" width="11" height="11" class="activity-0" rx="2"/>
  <rect x="420" y="92" width="11" height="11" class="activity-0" rx="2"/>
  <rect x="420" y="105" width="11" height="11" class="activity-0" rx="2"/>
  <rect x="420" y="118" width="11" height="11" class="activity-0" rx="2"/>
  <rect x="433" y="40" width="11" height="11" class="activity-0" rx="2"/>
  <rect x="433" y="53" width="11" height="11" class="activity-0" rx="2"/>
  <rect x="433" y="66" width="11" height="11" class="activity-0" rx="2"/>
  <rect x="433" y="79" width="11" height="11" class="activity-0" rx="2"/>
  <rect x="433" y="92" width="11" height="11" class="activity-0" rx="2"/>
  <rect x="433" y="105" width="11" height="11" class="activity-0" rx="2"/>
  <rect x="433" y="118" width="11" height="11" class="activity-0" rx="2"/>
  <rect x="446" y="40" width="11" height="11" class="activity-0" rx="2"/>
  <rect x="446" y="53" width="11" height="11" class="activity-0" rx="2"/>
  <rect x="446" y="66" width="11" height="11" class="activity-0" rx="2"/>
  <rect x="446" y="79" width="11" height="11" class="activity-0" rx="2"/>
  <rect x="446" y="92" width="11" height="11" class="activity-0" rx="2"/>
  <rect x="446" y="105" width="11" height="11" class="activity-0" rx="2"/>
  <rect x="446" y="118" width="11" height="11" class="activity-0" rx="2"/>
  <rect x="459" y="40" width="11" height="11" class="activity-0" rx="2"/>
  <rect x="459" y="53" width="11" height="11" class="activity-0" rx="2"/>
  <rect x="459" y="66" width="11" height="11" class="activity-0" rx="2"/>
  <rect x="459" y="79" width="11" height="11" class="activity-0" rx="2"/>
  <rect x="459" y="92" width="11" height="11" class="activity-0" rx="2"/>
  <rect x="459" y="105" width="11" height="11" class="activity-0" rx="2"/>
  <rect x="459" y="118" width="11" height="11" class="activity-0" rx="2"/>
  <rect x="472" y="40" width="11" height="11" class="activity-0" rx="2"/>
  <rect x="472" y="53" width="11" height="11" class="activity-0" rx="2"/>
  <rect x="472" y="66" width="11" height="11" class="activity-0" rx="2"/>
  <rect x="472" y="79" width="11" height="11" class="activity-0" rx="2"/>
  <rect x="472" y="92" width="11" height="11" class="activity-0" rx="2"/>
  <rect x="472" y="105" width="11" height="11" class="activity-0" rx="2"/>
  <rect x="472" y="118" width="11" height="11" class="activity-0" rx="2"/>
  <rect x="485" y="40" width="11" height="11" class="activity-0" rx="2"/>
  <rect x="485" y="53" width="11" height="11" class="activity-0" rx="2"/>
  <rect x="485" y="66" width="11" height="11" class="activity-0" rx="2"/>
  <rect x="485" y="79" width="11" height="11" class="activity-0" rx="2"/>
  <rect x="485" y="92" width="11" height="11" class="activity-0" rx="2"/>
  <rect x="485" y="105" width="11" height="11" class="activity-0" rx="2"/>
  <rect x="485" y="118" width="11" height="11" class="activity-0" rx="2"/>
  <rect x="498" y="40" width="11" height="11" class="activity-0" rx="2"/>
  <rect x="498" y="53" width="11" height="11" class="activity-0" rx="2"/>
  <rect x="498" y="66" width="11" height="11" class="activity-0" rx="2"/>
  <rect x="498" y="79" width="11" height="11" class="activity-0" rx="2"/>
  <rect x="498" y="92" width="11" height="11" class="activity-0" rx="2"/>
  <rect x="498" y="105" width="11" height="11" class="activity-0" rx="2"/>
  <rect x="498" y="118" width="11" height="11" class="activity-0" rx="2"/>
  <rect x="511" y="40" width="11" height="11" class="activity-0" rx="2"/>
  <rect x="511" y="53" width="11" height="11" class="activity-0" rx="2"/>
  <rect x="511" y="66" width="11" height="11" class="activity-0" rx="2"/>
  <rect x="511" y="79" width="11" height="11" class="activity-0" rx="2"/>
  <rect x="511" y="92" width="11" height="11" class="activity-0" rx="2"/>
  <rect x="511" y="105" width="11" height="11" class="activity-0" rx="2"/>
  <rect x="511" y="118" width="11" height="11" class="activity-0" rx="2"/>
  <rect x="524" y="40" width="11" height="11" class="activity-0" rx="2"/>
  <rect x="524" y="53" width="11" height="11" class="activity-0" rx="2"/>
  <rect x="524" y="66" width="11" height="11" class="activity-0" rx="2"/>
  <rect x="524" y="79" width="11" height="11" class="activity-0" rx="2"/>
  <rect x="524" y="92" width="11" height="11" class="activity-0" rx="2"/>
  <rect x="524" y="105" width="11" height="11" class="activity-0" rx="2"/>
  <rect x="524" y="118" width="11" height="11" class="activity-0" rx="2"/>
  <rect x="537" y="40" width="11" height="11" class="activity-0" rx="2"/>
  <rect x="537" y="53" width="11" height="11" class="activity-0" rx="2"/>
  <rect x="537" y="66" width="11" height="11" class="activity-0" rx="2"/>
  <rect x="537" y="79" width="11" height="11" class="activity-0" rx="2"/>
  <rect x="537" y="92" width="11" height="11" class="activity-0" rx="2"/>
  <rect x="537" y="105" width="11" height="11" class="activity-0" rx="2"/>
  <rect x="537" y="118" width="11" height="11" class="activity-0" rx="2"/>
  <rect x="550" y="40" width="11" height="11" class="activity-0" rx="2"/>
  <rect x="550" y="53" width="11" height="11" class="activity-0" rx="2"/>
  <rect x="550" y="66" width="11" height="11" class="activity-0" rx="2"/>
  <rect x="550" y="79" width="11" height="11" class="activity-0" rx="2"/>
  <rect x="550" y="92" width="11" height="11" class="activity-0" rx="2"/>
  <rect x="550" y="105" width="11" height="11" class="activity-0" rx="2"/>
  <rect x="550" y="118" width="11" height="11" class="activity-0" rx="2"/>
  <rect x="563" y="40" width="11" height="11" class="activity-0" rx="2"/>
  <rect x="563" y="53" width="11" height="11" class="activity-0" rx="2"/>
  <rect x="563" y="66" width="11" height="11" class="activity-0" rx="2"/>
  <rect x="563" y="79" width="11" height="11" class="activity-0" rx="2"/>
  <rect x="563" y="92" width="11" height="11" class="activity-0" rx="2"/>
  <rect x="563" y="105" width="11" height="11" class="activity-0" rx="2"/>
  <rect x="563" y="118" width="11" height="11" class="activity-0" rx="2"/>
  <rect x="576" y="40" width="11" height="11" class="activity-0" rx="2"/>
  <rect x="576" y="53" width="11" height="11" class="activity-0" rx="2"/>
  <rect x="576" y="66" width="11" height="11" class="activity-0" rx="2"/>
  <rect x="576" y="79" width="11" height="11" class="activity-0" rx="2"/>
  <rect x="576" y="92" width="11" height="11" class="activity-0" rx="2"/>
  <rect x="576" y="105" width="11" height="11" class="activity-0" rx="2"/>
  <rect x="576" y="118" width="11" height="11" class="activity-0" rx="2"/>
  <rect x="589" y="40" width="11" height="11" class="activity-0" rx="2"/>
  <rect x="589" y="53" width="11" height="11" class="activity-0" rx="2"/>
  <rect x="589" y="66" width="11" height="11" class="activity-0" rx="2"/>
  <rect x="589" y="79" width="11" height="11" class="activity-0" rx="2"/>
  <rect x="589" y="92" width="11" height="11" class="activity-0" rx="2"/>
  <rect x="589" y="105" width="11" height="11" class="activity-0" rx="2"/>
  <rect x="589" y="118" width="11" height="11" class="activity-0" rx="2"/>
  <rect x="602" y="40" width="11" height="11" class="activity-0" rx="2"/>
  <rect x="602" y="53" width="11" height="11" class="activity-0" rx="2"/>
  <rect x="602" y="66" width="11" height="11" class="activity-0" rx="2"/>
  <rect x="602" y="79" width="11" height="11" class="activity-0" rx="2"/>
  <rect x="602" y="92" width="11" height="11" class="activity-0" rx="2"/>
  <rect x="602" y="105" width="11" height="11" class="activity-0" rx="2"/>
  <rect x="602" y="118" width="11" height="11" class="activity-0" rx="2"/>
  <rect x="615" y="40" width="11" height="11" class="activity-0" rx="2"/>
  <rect x="615" y="53" width="11" height="11" class="activity-0" rx="2"/>
  <rect x="615" y="66" width="11" height="11" class="activity-0" rx="2"/>
  <rect x="615" y="79" width="11" height="11" class="activity-0" rx="2"/>
  <rect x="615" y="92" width="11" height="11" class="activity-0" rx="2"/>
  <rect x="615" y="105" width="11" height="11" class="activity-0" rx="2"/>
  <rect x="615" y="118" width="11" height="11" class="activity-0" rx="2"/>
  <rect x="628" y="40" width="11" height="11" class="activity-0" rx="2"/>
  <rect x="628" y="53" width="11" height="11" class="activity-0" rx="2"/>
  <rect x="628" y="66" width="11" height="11" class="activity-0" rx="2"/>
  <rect x="628" y="79" width="11" height="11" class="activity-0" rx="2"/>
  <rect x="628" y="92" width="11" height="11" class="activity-0" rx="2"/>
  <rect x="628" y="105" width="11" height="11" class="activity-0" rx="2"/>
  <rect x="628" y="118" width="11" height="11" class="activity-0" rx="2"/>
  <rect x="641" y="40" width="11" height="11" class="activity-0" rx="2"/>
  <rect x="641" y="53" width="11" height="11" class="activity-0" rx="2"/>
  <rect x="641" y="66" width="11" height="11" class="activity-0" rx="2"/>
  <rect x="641" y="79" width="11" height="11" class="activity-0" rx="2"/>
  <rect x="641" y="92" width="11" height="11" class="activity-0" rx="2"/>
  <rect x="641" y="105" width="11" height="11" class="activity-0" rx="2"/>
  <rect x="641" y="118" width="11" height="11" class="activity-0" rx="2"/>
  <rect x="654" y="40" width="11" height="11" class="activity-0" rx="2"/>
  <rect x="654" y="53" width="11" height="11" class="activity-0" rx="2"/>
  <rect x="654" y="66" width="11" height="11" class="activity-0" rx="2"/>
  <rect x="654" y="79" width="11" height="11" class="activity-0" rx="2"/>
  <rect x="654" y="92" width="11" height="11" class="activity-0" rx="2"/>
  <rect x="654" y="105" width="11" height="11" class="activity-4" rx="2"/>
  <rect x="654" y="118" width="11" height="11" class="activity-3" rx="2"/>
  <rect x="667" y="40" width="11" height="11" class="activity-3" rx="2"/>
  <rect x="667" y="53" width="11" height="11" class="activity-1" rx="2"/>
  <rect x="667" y="66" width="11" height="11" class="activity-0" rx="2"/>
  <rect x="667" y="79" width="11" height="11" class="activity-4" rx="2"/>
  <rect x="667" y="92" width="11" height="11" class="activity-2" rx="2"/>
  <rect x="667" y="105" width="11" height="11" class="activity-4" rx="2"/>
  <rect x="667" y="118" width="11" height="11" class="activity-2" rx="2"/>
  <rect x="680" y="40" width="11" height="11" class="activity-2" rx="2"/>
  <rect x="680" y="53" width="11" height="11" class="activity-0" rx="2"/>
  <rect x="680" y="66" width="11" height="11" class="activity-0" rx="2"/>
  <rect x="680" y="79" width="11" height="11" class="activity-0" rx="2"/>
  <rect x="680" y="92" width="11" height="11" class="activity-4" rx="2"/>
  <rect x="680" y="105" width="11" height="11" class="activity-3" rx="2"/>
  <rect x="680" y="118" width="11" height="11" class="activity-2" rx="2"/>
  <rect x="693" y="40" width="11" height="11" class="activity-3" rx="2"/>
  <rect x="693" y="53" width="11" height="11" class="activity-0" rx="2"/>
  <rect x="693" y="66" width="11" height="11" class="activity-2" rx="2"/>
  <rect x="693" y="79" width="11" height="11" class="activity-4" rx="2"/>
  <rect x="693" y="92" width="11" height="11" class="activity-4" rx="2"/>
  <rect x="693" y="105" width="11" height="11" class="activity-0" rx="2"/>
  <rect x="693" y="118" width="11" height="11" class="activity-0" rx="2"/>

  <!-- Legend -->
  <text x="656" y="25" font-family="Arial, sans-serif" font-size="9" class="text-secondary">Less</text>
  <rect x="681" y="15" width="10" height="10" class="activity-0" rx="2"/>
  <rect x="694" y="15" width="10" height="10" class="activity-1" rx="2"/>
  <rect x="707" y="15" width="10" height="10" class="activity-2" rx="2"/>
  <rect x="720" y="15" width="10" height="10" class="activity-3" rx="2"/>
  <rect x="733" y="15" width="10" height="10" class="activity-4" rx="2"/>
  <text x="746" y="25" font-family="Arial, sans-serif" font-size="9" class="text-secondary">More</text>
</svg>